<svg xmlns="http://www.w3.org/2000/svg" viewBox="0 0 461 461"><defs><style>.cls-1{fill:#333;}.cls-2{fill:#c7b299;}</style></defs><title>Element 1</title><g id="Ebene_2" data-name="Ebene 2"><g id="Ebene_1-2" data-name="Ebene 1"><circle class="cls-1" cx="230.5" cy="230.5" r="230.5"/><path class="cls-2" d="M349,190.81l-15.7,13.43,5.59,6a35,35,0,0,0,6.94,6h-40v-14q0-35.67-8.23-55.35t-28.64-31.61q-20.43-11.92-51.85-11.92-25.7,0-45.47,9.89t-28.46,28.46q-8.7,18.57-8.69,50.74v71.53q0,27.34,3.88,41.68a67.78,67.78,0,0,0,14,26.24q10.06,11.92,28.18,18.76t41.78,6.84q24.39,0,40.57-6.93a65.21,65.21,0,0,0,26.7-20.79q10.55-13.86,13.4-26.06t2.87-34.94h40a37,37,0,0,0-6.94,6.19l-5.59,6L349,294.52l45.59-50.72ZM209.13,177q0-20.7,1.85-25.41t9.61-4.72q6.28,0,8.32,5.55t2,24.58v17.93H209.13ZM235,250.29v.45h0v32.35q0,18.29-2.87,24.67t-11.36,6.38q-6.84,0-9.25-4.81t-2.4-21.44v-53H235V235h126.5l6,8.77-6,6.49Z"/></g></g></svg>